<?xml version="1.0" encoding="utf-8"?>
<svg xmlns="http://www.w3.org/2000/svg" xmlns:xlink="http://www.w3.org/1999/xlink" version="1.1" id="Layer_1" x="0px" y="0px" viewBox="0 0 39.9 37.9" style="enable-background:new 0 0 39.9 37.9;">
<style type="text/css">
	.st0{fill:#3DB054;}
</style>
<g>
	<path class="st0" d="M17.8,22.8c-0.8,0.5-2.2,0.3-2.9-0.2c-0.6-0.5-0.5-1.1,0.3-1.5c0.7-0.3,1.8-0.2,2.5,0.1   C18.4,21.7,18.6,22.4,17.8,22.8"/>
	<path class="st0" d="M13.9,20.7c-0.1,0.5-0.9,0.9-1.8,0.9c-0.9,0-1.5-0.4-1.2-0.9c0.2-0.4,1-0.7,1.7-0.7C13.3,20,14,20.3,13.9,20.7   "/>
	<path class="st0" d="M9.4,21c0.5,0.3,0.3,0.9-0.6,1.3c-0.9,0.5-2.1,0.6-2.5,0.2c-0.4-0.4,0.1-1,0.9-1.4C8,20.8,8.9,20.7,9.4,21"/>
	<path class="st0" d="M4.9,23.6c1.1-0.1,1.8,0.4,1.4,1.2c-0.4,1-2,2.1-3.5,2.3c-1.5,0.2-2-0.6-1.2-1.7C2.4,24.5,3.8,23.7,4.9,23.6"/>
	<path class="st0" d="M2.6,29.2c1.6-1.4,3.5-1.8,4.4-1.1c1.1,0.8,0.9,2.9-0.8,5c-2.1,2.5-5,3.5-6,1.8C-0.6,33.4,0.7,30.8,2.6,29.2"/>
	<path class="st0" d="M9.5,33.8c-0.2-2.4,1.1-4.5,2.7-5.1c1.6-0.6,3.4,0.1,4.3,1.9c1.2,2.3,0.6,5.5-1.7,6.8   C12.3,38.8,9.8,36.8,9.5,33.8"/>
	<path class="st0" d="M20.5,24.3c0.8,0.5,1.4,1.7,1.2,2.6c-0.1,0.8-0.8,1-1.4,0.5c-0.6-0.5-1.1-1.4-1.1-2.2   C19.2,24.3,19.7,23.8,20.5,24.3"/>
	<path class="st0" d="M20.6,28.7c0.4-0.2,1.2,0.3,1.7,1.1c0.5,0.8,0.4,1.5-0.1,1.5c-0.5,0-1.1-0.5-1.5-1.1   C20.3,29.5,20.2,28.8,20.6,28.7"/>
	<path class="st0" d="M23.1,32.4c0-0.6,0.6-0.7,1.5-0.2c0.9,0.6,1.5,1.5,1.4,2.1c-0.1,0.5-0.9,0.4-1.6-0.1   C23.6,33.7,23.1,32.9,23.1,32.4"/>
	<path class="st0" d="M27.6,35c-0.7-0.9-0.6-1.7,0.3-1.8c1.1-0.1,2.8,0.7,3.7,1.9c0.9,1.2,0.5,2-0.9,1.9   C29.7,36.8,28.3,35.9,27.6,35"/>
	<path class="st0" d="M33.6,34.2c-2-0.7-3.3-2.1-3.2-3.3c0.2-1.3,2.1-2.2,4.7-1.8c3.2,0.5,5.5,2.6,4.5,4.3   C38.8,34.9,35.9,35.1,33.6,34.2"/>
	<path class="st0" d="M34.1,26c-2,1.4-4.4,1.3-5.8,0.2c-1.3-1.1-1.6-3-0.5-4.7c1.4-2.1,4.5-3.3,6.8-2C37.1,21,36.6,24.2,34.1,26"/>
	<path class="st0" d="M20.4,21.2c0-0.9,0.8-2.1,1.6-2.4c0.8-0.3,1.2,0.2,1.1,1c-0.1,0.8-0.7,1.7-1.4,2.1   C21.1,22.3,20.4,22.1,20.4,21.2"/>
	<path class="st0" d="M24.1,18.9c-0.4-0.3-0.3-1.2,0.1-2c0.5-0.8,1.1-1.1,1.4-0.6c0.3,0.4,0.1,1.2-0.2,1.9   C25.1,18.8,24.5,19.1,24.1,18.9"/>
	<path class="st0" d="M26.1,14.8c-0.5,0.3-0.9-0.2-0.9-1.2c0-1,0.6-2.1,1.1-2.3c0.5-0.1,0.8,0.6,0.7,1.5   C27,13.7,26.6,14.6,26.1,14.8"/>
	<path class="st0" d="M26.2,9.7c-0.4,1-1.2,1.4-1.8,0.6c-0.7-0.8-0.8-2.8-0.3-4.2c0.6-1.4,1.5-1.4,2-0.2C26.6,7,26.6,8.6,26.2,9.7"/>
	<path class="st0" d="M22.5,4.9c0.4,2.1-0.2,3.9-1.3,4.4c-1.2,0.5-3-0.7-3.9-3.2C16.1,3,16.8,0,18.7,0C20.4,0,22,2.4,22.5,4.9"/>
	<path class="st0" d="M15,8.5c2.2,1,3.4,3.2,3.1,4.9c-0.3,1.7-1.8,2.9-3.8,2.8c-2.5-0.1-5.1-2.2-5.1-4.9C9.2,8.5,12.2,7.3,15,8.5"/>
</g>
</svg>
